<svg width="12" height="7" viewBox="0 0 12 7" fill="none" xmlns="http://www.w3.org/2000/svg">
<path d="M10.8006 0.137065L5.80257 5.00907L0.804566 0.137065C0.715272 0.0498356 0.595396 0.000999928 0.470566 0.000999928C0.345737 0.000999928 0.22586 0.0498356 0.136566 0.137065C0.0933286 0.17943 0.0589787 0.229995 0.0355287 0.285801C0.0120787 0.341608 0 0.401532 0 0.462065C0 0.522598 0.0120787 0.582522 0.0355287 0.638329C0.0589787 0.694135 0.0933286 0.744701 0.136566 0.787065L5.45357 5.97107C5.54694 6.06208 5.67217 6.11302 5.80257 6.11302C5.93296 6.11302 6.05819 6.06208 6.15157 5.97107L11.4686 0.788065C11.5121 0.745669 11.5467 0.694979 11.5704 0.638988C11.594 0.582997 11.6062 0.522839 11.6062 0.462065C11.6062 0.401291 11.594 0.341133 11.5704 0.285142C11.5467 0.229151 11.5121 0.178461 11.4686 0.136065C11.3793 0.0488352 11.2594 0 11.1346 0C11.0097 0 10.8899 0.0488352 10.8006 0.136065V0.137065Z" fill="#9CA3AF" fill-opacity="0.980392"/>
</svg>
