<svg width="13" height="13" viewBox="0 0 13 13" fill="none" xmlns="http://www.w3.org/2000/svg">
<path d="M12.506 1.09375C12.506 0.817483 12.3963 0.552531 12.2009 0.35718C12.0056 0.16183 11.7406 0.0520835 11.4644 0.0520835L3.13104 0C2.85477 0 2.58982 0.109747 2.39447 0.305097C2.19912 0.500448 2.08937 0.765399 2.08937 1.04167C2.08937 1.31793 2.19912 1.58289 2.39447 1.77824C2.58982 1.97359 2.85477 2.08333 3.13104 2.08333H8.92271L0.308123 10.7188C0.210489 10.8156 0.132996 10.9308 0.0801116 11.0577C0.0272276 11.1847 0 11.3208 0 11.4583C0 11.5958 0.0272276 11.732 0.0801116 11.8589C0.132996 11.9859 0.210489 12.1011 0.308123 12.1979C0.40496 12.2955 0.520169 12.373 0.647106 12.4259C0.774042 12.4788 0.910194 12.506 1.04771 12.506C1.18522 12.506 1.32137 12.4788 1.44831 12.4259C1.57524 12.373 1.69045 12.2955 1.78729 12.1979L10.4227 3.5625V9.375C10.4227 9.65127 10.5325 9.91622 10.7278 10.1116C10.9232 10.3069 11.1881 10.4167 11.4644 10.4167C11.7406 10.4167 12.0056 10.3069 12.2009 10.1116C12.3963 9.91622 12.506 9.65127 12.506 9.375V1.09375Z" fill="#E9D5FF"/>
</svg>
