<svg width="17" height="17" viewBox="0 0 17 17" fill="none" xmlns="http://www.w3.org/2000/svg">
<path d="M14.2379 2.42504C13.4699 1.65346 12.5553 1.04168 11.5473 0.625345C10.5394 0.20901 9.45819 -0.00355263 8.36683 4.49125e-05C3.79397 4.49125e-05 0.0670018 3.70837 0.0670018 8.25836C0.0670018 9.71669 0.452261 11.1333 1.17253 12.3833L0 16.6667L4.39698 15.5167C5.61139 16.175 6.97655 16.525 8.36683 16.525C12.9397 16.525 16.6667 12.8167 16.6667 8.26669C16.6667 6.05836 15.804 3.98337 14.2379 2.42504ZM8.36683 15.125C7.1273 15.125 5.9129 14.7917 4.84925 14.1667L4.59799 14.0167L1.98492 14.7L2.68007 12.1667L2.51256 11.9083C1.82374 10.8142 1.45806 9.54941 1.45729 8.25836C1.45729 4.47503 4.55611 1.39171 8.35846 1.39171C10.201 1.39171 11.9347 2.10837 13.2328 3.40837C13.8757 4.04492 14.3852 4.80215 14.7317 5.63614C15.0782 6.47012 15.2548 7.36426 15.2513 8.26669C15.268 12.05 12.1692 15.125 8.36683 15.125ZM12.1524 9.99168C11.943 9.89168 10.9213 9.39169 10.737 9.31669C10.5444 9.25002 10.4104 9.21669 10.268 9.41669C10.1256 9.62502 9.73199 10.0917 9.61474 10.225C9.49749 10.3667 9.37186 10.3834 9.16248 10.275C8.9531 10.175 8.28308 9.95002 7.49581 9.25002C6.87605 8.70002 6.46566 8.02502 6.34003 7.81669C6.22278 7.60836 6.32328 7.50002 6.43216 7.39169C6.52429 7.30002 6.64154 7.15003 6.74204 7.03336C6.84255 6.91669 6.88442 6.82503 6.95142 6.69169C7.01842 6.55003 6.98492 6.43336 6.93467 6.33336C6.88442 6.23336 6.46566 5.2167 6.29816 4.80003C6.13065 4.40003 5.95477 4.45003 5.82914 4.4417H5.42713C5.28476 4.4417 5.067 4.4917 4.87437 4.70003C4.69012 4.90836 4.1541 5.40836 4.1541 6.42503C4.1541 7.44169 4.8995 8.42502 5 8.55836C5.1005 8.70002 6.46566 10.7833 8.54271 11.675C9.03685 11.8917 9.42211 12.0167 9.72362 12.1083C10.2178 12.2667 10.67 12.2417 11.0301 12.1917C11.4322 12.1333 12.2613 11.6917 12.4288 11.2083C12.6047 10.725 12.6047 10.3167 12.5461 10.225C12.4874 10.1334 12.3618 10.0917 12.1524 9.99168Z" fill="#8B5CF6"/>
</svg>
